<mxfile host="app.diagrams.net" agent="Mozilla/5.0 (Windows NT 10.0; Win64; x64) AppleWebKit/537.36 (KHTML, like Gecko) Chrome/132.0.0.0 Safari/537.36" version="26.0.13" pages="3">
  <diagram name="high-level" id="dyGFYiwu21GuJYuzSbeo">
    <mxGraphModel dx="1909" dy="949" grid="1" gridSize="10" guides="1" tooltips="1" connect="1" arrows="1" fold="1" page="1" pageScale="1" pageWidth="850" pageHeight="1100" math="0" shadow="0">
      <root>
        <mxCell id="0" />
        <mxCell id="1" parent="0" />
        <mxCell id="Nc96AKdkwotpxMe6lG0i-1" value="" style="group" parent="1" vertex="1" connectable="0">
          <mxGeometry x="850" y="80" width="660" height="210" as="geometry" />
        </mxCell>
        <mxCell id="Nc96AKdkwotpxMe6lG0i-2" value="" style="whiteSpace=wrap;html=1;fontSize=11;" parent="Nc96AKdkwotpxMe6lG0i-1" vertex="1">
          <mxGeometry width="660" height="210" as="geometry" />
        </mxCell>
        <mxCell id="Nc96AKdkwotpxMe6lG0i-3" style="edgeStyle=orthogonalEdgeStyle;rounded=0;orthogonalLoop=1;jettySize=auto;html=1;exitX=1;exitY=0.5;exitDx=0;exitDy=0;entryX=0;entryY=0.5;entryDx=0;entryDy=0;" parent="Nc96AKdkwotpxMe6lG0i-1" source="Nc96AKdkwotpxMe6lG0i-4" target="Nc96AKdkwotpxMe6lG0i-6" edge="1">
          <mxGeometry relative="1" as="geometry" />
        </mxCell>
        <mxCell id="Nc96AKdkwotpxMe6lG0i-4" value="user interface&lt;div&gt;nextjs, typescript&lt;/div&gt;" style="rounded=0;whiteSpace=wrap;html=1;" parent="Nc96AKdkwotpxMe6lG0i-1" vertex="1">
          <mxGeometry x="10" y="103" width="120" height="60" as="geometry" />
        </mxCell>
        <mxCell id="Nc96AKdkwotpxMe6lG0i-5" style="edgeStyle=orthogonalEdgeStyle;rounded=0;orthogonalLoop=1;jettySize=auto;html=1;exitX=1;exitY=0.5;exitDx=0;exitDy=0;" parent="Nc96AKdkwotpxMe6lG0i-1" source="Nc96AKdkwotpxMe6lG0i-6" target="Nc96AKdkwotpxMe6lG0i-7" edge="1">
          <mxGeometry relative="1" as="geometry" />
        </mxCell>
        <mxCell id="Nc96AKdkwotpxMe6lG0i-47" style="edgeStyle=orthogonalEdgeStyle;rounded=0;orthogonalLoop=1;jettySize=auto;html=1;exitX=1;exitY=0.5;exitDx=0;exitDy=0;entryX=0;entryY=0.5;entryDx=0;entryDy=0;" parent="Nc96AKdkwotpxMe6lG0i-1" source="Nc96AKdkwotpxMe6lG0i-6" target="Nc96AKdkwotpxMe6lG0i-46" edge="1">
          <mxGeometry relative="1" as="geometry" />
        </mxCell>
        <mxCell id="Nc96AKdkwotpxMe6lG0i-6" value="backend api server&lt;div&gt;expressjs, typescript&lt;/div&gt;" style="rounded=0;whiteSpace=wrap;html=1;" parent="Nc96AKdkwotpxMe6lG0i-1" vertex="1">
          <mxGeometry x="180" y="103" width="120" height="60" as="geometry" />
        </mxCell>
        <mxCell id="Nc96AKdkwotpxMe6lG0i-7" value="mongoDb db" style="dashed=0;outlineConnect=0;html=1;align=center;labelPosition=center;verticalLabelPosition=bottom;verticalAlign=top;shape=mxgraph.weblogos.mongodb" parent="Nc96AKdkwotpxMe6lG0i-1" vertex="1">
          <mxGeometry x="380" y="90" width="41.2" height="86.2" as="geometry" />
        </mxCell>
        <mxCell id="Nc96AKdkwotpxMe6lG0i-8" value="&lt;font style=&quot;font-size: 16px;&quot;&gt;&lt;b&gt;High level design (components)&lt;/b&gt;&lt;/font&gt;" style="text;html=1;align=center;verticalAlign=middle;resizable=0;points=[];autosize=1;strokeColor=none;fillColor=none;" parent="Nc96AKdkwotpxMe6lG0i-1" vertex="1">
          <mxGeometry y="50" width="270" height="30" as="geometry" />
        </mxCell>
        <mxCell id="Nc96AKdkwotpxMe6lG0i-45" style="edgeStyle=orthogonalEdgeStyle;rounded=0;orthogonalLoop=1;jettySize=auto;html=1;" parent="Nc96AKdkwotpxMe6lG0i-1" source="Nc96AKdkwotpxMe6lG0i-44" target="Nc96AKdkwotpxMe6lG0i-7" edge="1">
          <mxGeometry relative="1" as="geometry" />
        </mxCell>
        <mxCell id="Nc96AKdkwotpxMe6lG0i-48" style="edgeStyle=orthogonalEdgeStyle;rounded=0;orthogonalLoop=1;jettySize=auto;html=1;exitX=0;exitY=0.5;exitDx=0;exitDy=0;entryX=1;entryY=0.5;entryDx=0;entryDy=0;" parent="Nc96AKdkwotpxMe6lG0i-1" source="Nc96AKdkwotpxMe6lG0i-44" target="Nc96AKdkwotpxMe6lG0i-46" edge="1">
          <mxGeometry relative="1" as="geometry" />
        </mxCell>
        <mxCell id="Nc96AKdkwotpxMe6lG0i-44" value="recurring scheduling logic&lt;br data--h-bstatus=&quot;0OBSERVED&quot;&gt;&lt;div data--h-bstatus=&quot;0OBSERVED&quot;&gt;expressjs, typescript&lt;/div&gt;" style="rounded=0;whiteSpace=wrap;html=1;" parent="Nc96AKdkwotpxMe6lG0i-1" vertex="1">
          <mxGeometry x="520" y="103" width="120" height="60" as="geometry" />
        </mxCell>
        <mxCell id="Nc96AKdkwotpxMe6lG0i-46" value="file storage" style="rounded=0;whiteSpace=wrap;html=1;" parent="Nc96AKdkwotpxMe6lG0i-1" vertex="1">
          <mxGeometry x="340.5999999999999" y="10" width="120" height="60" as="geometry" />
        </mxCell>
        <mxCell id="Nc96AKdkwotpxMe6lG0i-9" value="" style="group" parent="1" vertex="1" connectable="0">
          <mxGeometry x="50" y="350" width="640" height="1120" as="geometry" />
        </mxCell>
        <mxCell id="Nc96AKdkwotpxMe6lG0i-10" value="" style="whiteSpace=wrap;html=1;fontSize=11;" parent="Nc96AKdkwotpxMe6lG0i-9" vertex="1">
          <mxGeometry width="640" height="880" as="geometry" />
        </mxCell>
        <mxCell id="Nc96AKdkwotpxMe6lG0i-11" value="&lt;div data--h-bstatus=&quot;0OBSERVED&quot;&gt;&lt;span data--h-bstatus=&quot;0OBSERVED&quot; style=&quot;font-size: 16px;&quot;&gt;&lt;b data--h-bstatus=&quot;0OBSERVED&quot;&gt;PostsData&lt;/b&gt;&lt;/span&gt;&lt;/div&gt;&lt;font data--h-bstatus=&quot;0OBSERVED&quot; style=&quot;font-size: 16px;&quot;&gt;&lt;b data--h-bstatus=&quot;0OBSERVED&quot;&gt;/postsData&lt;/b&gt;&lt;/font&gt;&lt;div data--h-bstatus=&quot;0OBSERVED&quot;&gt;&lt;br data--h-bstatus=&quot;0OBSERVED&quot;&gt;&lt;/div&gt;&lt;div data--h-bstatus=&quot;0OBSERVED&quot;&gt;create a new post&lt;/div&gt;&lt;div data--h-bstatus=&quot;0OBSERVED&quot;&gt;private (user)&lt;/div&gt;&lt;div data--h-bstatus=&quot;0OBSERVED&quot;&gt;/(postDataProps)&lt;/div&gt;&lt;div data--h-bstatus=&quot;0OBSERVED&quot;&gt;POST&lt;/div&gt;&lt;div data--h-bstatus=&quot;0OBSERVED&quot;&gt;response: 200 ok Post&lt;/div&gt;&lt;div data--h-bstatus=&quot;0OBSERVED&quot;&gt;&lt;br data--h-bstatus=&quot;0OBSERVED&quot;&gt;&lt;/div&gt;&lt;div data--h-bstatus=&quot;0OBSERVED&quot;&gt;&lt;span data--h-bstatus=&quot;0OBSERVED&quot; style=&quot;background-color: transparent; color: light-dark(rgb(0, 0, 0), rgb(255, 255, 255));&quot;&gt;get posts for a user&lt;/span&gt;&lt;/div&gt;&lt;div data--h-bstatus=&quot;0OBSERVED&quot;&gt;&lt;span data--h-bstatus=&quot;0OBSERVED&quot; style=&quot;background-color: transparent; color: light-dark(rgb(0, 0, 0), rgb(255, 255, 255));&quot;&gt;private (user)&lt;/span&gt;&lt;/div&gt;&lt;div data--h-bstatus=&quot;0OBSERVED&quot;&gt;/&lt;/div&gt;&lt;div data--h-bstatus=&quot;0OBSERVED&quot;&gt;GET&lt;/div&gt;&lt;div data--h-bstatus=&quot;0OBSERVED&quot;&gt;response: 200 ok [PostId]&lt;/div&gt;&lt;div data--h-bstatus=&quot;0OBSERVED&quot;&gt;&lt;br data--h-bstatus=&quot;0OBSERVED&quot;&gt;&lt;/div&gt;&lt;div data--h-bstatus=&quot;0OBSERVED&quot;&gt;get post&lt;/div&gt;&lt;div data--h-bstatus=&quot;0OBSERVED&quot;&gt;private (user)&lt;/div&gt;&lt;div data--h-bstatus=&quot;0OBSERVED&quot;&gt;/:id&lt;/div&gt;&lt;div data--h-bstatus=&quot;0OBSERVED&quot;&gt;GET&lt;/div&gt;&lt;div data--h-bstatus=&quot;0OBSERVED&quot;&gt;response 200 ok Post&lt;/div&gt;&lt;div data--h-bstatus=&quot;0OBSERVED&quot;&gt;&lt;br data--h-bstatus=&quot;0OBSERVED&quot;&gt;&lt;/div&gt;&lt;div data--h-bstatus=&quot;0OBSERVED&quot;&gt;modify post&lt;/div&gt;&lt;div data--h-bstatus=&quot;0OBSERVED&quot;&gt;private (user)&lt;/div&gt;&lt;div data--h-bstatus=&quot;0OBSERVED&quot;&gt;/:id(postProps)&lt;/div&gt;&lt;div data--h-bstatus=&quot;0OBSERVED&quot;&gt;PUT&lt;/div&gt;&lt;div data--h-bstatus=&quot;0OBSERVED&quot;&gt;response: 200 ok Post&lt;/div&gt;&lt;div data--h-bstatus=&quot;0OBSERVED&quot;&gt;&lt;br data--h-bstatus=&quot;0OBSERVED&quot;&gt;&lt;/div&gt;&lt;div data--h-bstatus=&quot;0OBSERVED&quot;&gt;delete post&lt;/div&gt;&lt;div data--h-bstatus=&quot;0OBSERVED&quot;&gt;private (user)&lt;/div&gt;&lt;div data--h-bstatus=&quot;0OBSERVED&quot;&gt;/:id&lt;/div&gt;&lt;div data--h-bstatus=&quot;0OBSERVED&quot;&gt;DELETE&lt;/div&gt;&lt;div data--h-bstatus=&quot;0OBSERVED&quot;&gt;response: 200 ok {status: success}&lt;/div&gt;" style="text;html=1;align=left;verticalAlign=middle;resizable=0;points=[];autosize=1;strokeColor=none;fillColor=none;" parent="Nc96AKdkwotpxMe6lG0i-9" vertex="1">
          <mxGeometry x="30" y="60" width="210" height="480" as="geometry" />
        </mxCell>
        <mxCell id="Nc96AKdkwotpxMe6lG0i-13" value="&lt;font style=&quot;font-size: 16px;&quot;&gt;&lt;b&gt;High level design (API)&lt;/b&gt;&lt;/font&gt;" style="text;html=1;align=center;verticalAlign=middle;resizable=0;points=[];autosize=1;strokeColor=none;fillColor=none;" parent="Nc96AKdkwotpxMe6lG0i-9" vertex="1">
          <mxGeometry x="430" y="15" width="200" height="30" as="geometry" />
        </mxCell>
        <mxCell id="Nc96AKdkwotpxMe6lG0i-49" value="&lt;div data--h-bstatus=&quot;0OBSERVED&quot;&gt;&lt;span data--h-bstatus=&quot;0OBSERVED&quot; style=&quot;font-size: 16px;&quot;&gt;&lt;b data--h-bstatus=&quot;0OBSERVED&quot;&gt;Profile&lt;/b&gt;&lt;/span&gt;&lt;/div&gt;&lt;div data--h-bstatus=&quot;0OBSERVED&quot;&gt;&lt;b style=&quot;font-size: 16px; background-color: transparent; color: light-dark(rgb(0, 0, 0), rgb(255, 255, 255));&quot; data--h-bstatus=&quot;0OBSERVED&quot;&gt;/profile&lt;/b&gt;&lt;/div&gt;&lt;div data--h-bstatus=&quot;0OBSERVED&quot;&gt;&lt;br data--h-bstatus=&quot;0OBSERVED&quot;&gt;&lt;/div&gt;&lt;div data--h-bstatus=&quot;0OBSERVED&quot;&gt;get profile configurations&lt;/div&gt;&lt;div data--h-bstatus=&quot;0OBSERVED&quot;&gt;&lt;span data--h-bstatus=&quot;0OBSERVED&quot; style=&quot;background-color: transparent; color: light-dark(rgb(0, 0, 0), rgb(255, 255, 255));&quot;&gt;private (user)&lt;/span&gt;&lt;/div&gt;&lt;div data--h-bstatus=&quot;0OBSERVED&quot;&gt;/&lt;/div&gt;&lt;div data--h-bstatus=&quot;0OBSERVED&quot;&gt;GET&lt;/div&gt;&lt;div data--h-bstatus=&quot;0OBSERVED&quot;&gt;response: 200 ok Profile&lt;/div&gt;&lt;div data--h-bstatus=&quot;0OBSERVED&quot;&gt;&lt;br data--h-bstatus=&quot;0OBSERVED&quot;&gt;&lt;/div&gt;&lt;div data--h-bstatus=&quot;0OBSERVED&quot;&gt;create a profile configuration&lt;/div&gt;&lt;div data--h-bstatus=&quot;0OBSERVED&quot;&gt;private (user)&lt;/div&gt;&lt;div data--h-bstatus=&quot;0OBSERVED&quot;&gt;/(profileProps)&lt;/div&gt;&lt;div data--h-bstatus=&quot;0OBSERVED&quot;&gt;POST&lt;/div&gt;&lt;div data--h-bstatus=&quot;0OBSERVED&quot;&gt;response: 200 ok Profile&lt;/div&gt;&lt;div data--h-bstatus=&quot;0OBSERVED&quot;&gt;&lt;br&gt;&lt;/div&gt;&lt;div data--h-bstatus=&quot;0OBSERVED&quot;&gt;&lt;div data--h-bstatus=&quot;0OBSERVED&quot;&gt;modify profile configuration&lt;/div&gt;&lt;div data--h-bstatus=&quot;0OBSERVED&quot;&gt;private (user)&lt;/div&gt;&lt;div data--h-bstatus=&quot;0OBSERVED&quot;&gt;/(profileProps)&lt;/div&gt;&lt;div data--h-bstatus=&quot;0OBSERVED&quot;&gt;PUT&lt;/div&gt;&lt;div data--h-bstatus=&quot;0OBSERVED&quot;&gt;response: 200 ok Profile&lt;/div&gt;&lt;/div&gt;" style="text;html=1;align=left;verticalAlign=middle;resizable=0;points=[];autosize=1;strokeColor=none;fillColor=none;" parent="Nc96AKdkwotpxMe6lG0i-9" vertex="1">
          <mxGeometry x="300" y="550" width="170" height="310" as="geometry" />
        </mxCell>
        <mxCell id="Nc96AKdkwotpxMe6lG0i-50" value="&lt;div data--h-bstatus=&quot;0OBSERVED&quot;&gt;&lt;b style=&quot;font-size: 16px; background-color: transparent; color: light-dark(rgb(0, 0, 0), rgb(255, 255, 255));&quot; data--h-bstatus=&quot;0OBSERVED&quot;&gt;Publish&lt;/b&gt;&lt;/div&gt;&lt;div data--h-bstatus=&quot;0OBSERVED&quot;&gt;&lt;b style=&quot;font-size: 16px; background-color: transparent; color: light-dark(rgb(0, 0, 0), rgb(255, 255, 255));&quot; data--h-bstatus=&quot;0OBSERVED&quot;&gt;/publish&lt;/b&gt;&lt;/div&gt;&lt;div data--h-bstatus=&quot;0OBSERVED&quot;&gt;&lt;br data--h-bstatus=&quot;0OBSERVED&quot;&gt;&lt;/div&gt;&lt;div data--h-bstatus=&quot;0OBSERVED&quot;&gt;&lt;span data--h-bstatus=&quot;0OBSERVED&quot; style=&quot;background-color: transparent; color: light-dark(rgb(0, 0, 0), rgb(255, 255, 255));&quot;&gt;publish to a group&lt;/span&gt;&lt;/div&gt;&lt;div data--h-bstatus=&quot;0OBSERVED&quot;&gt;&lt;span data--h-bstatus=&quot;0OBSERVED&quot; style=&quot;background-color: transparent; color: light-dark(rgb(0, 0, 0), rgb(255, 255, 255));&quot;&gt;private (user)&lt;/span&gt;&lt;/div&gt;&lt;div data--h-bstatus=&quot;0OBSERVED&quot;&gt;/group&lt;/div&gt;&lt;div data--h-bstatus=&quot;0OBSERVED&quot;&gt;POST&lt;/div&gt;&lt;div data--h-bstatus=&quot;0OBSERVED&quot;&gt;response: 200 ok {status}&lt;/div&gt;" style="text;html=1;align=left;verticalAlign=middle;resizable=0;points=[];autosize=1;strokeColor=none;fillColor=none;" parent="Nc96AKdkwotpxMe6lG0i-9" vertex="1">
          <mxGeometry x="30" y="550" width="160" height="140" as="geometry" />
        </mxCell>
        <mxCell id="Nc96AKdkwotpxMe6lG0i-53" value="&lt;div data--h-bstatus=&quot;0OBSERVED&quot;&gt;&lt;span data--h-bstatus=&quot;0OBSERVED&quot; style=&quot;font-size: 16px;&quot;&gt;&lt;b data--h-bstatus=&quot;0OBSERVED&quot;&gt;posts&lt;/b&gt;&lt;/span&gt;&lt;/div&gt;&lt;font data--h-bstatus=&quot;0OBSERVED&quot; style=&quot;font-size: 16px;&quot;&gt;&lt;b data--h-bstatus=&quot;0OBSERVED&quot;&gt;/posts&lt;/b&gt;&lt;/font&gt;&lt;div data--h-bstatus=&quot;0OBSERVED&quot;&gt;&lt;br data--h-bstatus=&quot;0OBSERVED&quot;&gt;&lt;/div&gt;&lt;div data--h-bstatus=&quot;0OBSERVED&quot;&gt;create a new post&lt;/div&gt;&lt;div data--h-bstatus=&quot;0OBSERVED&quot;&gt;private (user)&lt;/div&gt;&lt;div data--h-bstatus=&quot;0OBSERVED&quot;&gt;/(postProps)&lt;/div&gt;&lt;div data--h-bstatus=&quot;0OBSERVED&quot;&gt;POST&lt;/div&gt;&lt;div data--h-bstatus=&quot;0OBSERVED&quot;&gt;response: 200 ok Post&lt;/div&gt;&lt;div data--h-bstatus=&quot;0OBSERVED&quot;&gt;&lt;br data--h-bstatus=&quot;0OBSERVED&quot;&gt;&lt;/div&gt;&lt;div data--h-bstatus=&quot;0OBSERVED&quot;&gt;&lt;span data--h-bstatus=&quot;0OBSERVED&quot; style=&quot;background-color: transparent; color: light-dark(rgb(0, 0, 0), rgb(255, 255, 255));&quot;&gt;get posts for a user&lt;/span&gt;&lt;/div&gt;&lt;div data--h-bstatus=&quot;0OBSERVED&quot;&gt;&lt;span data--h-bstatus=&quot;0OBSERVED&quot; style=&quot;background-color: transparent; color: light-dark(rgb(0, 0, 0), rgb(255, 255, 255));&quot;&gt;private (user)&lt;/span&gt;&lt;/div&gt;&lt;div data--h-bstatus=&quot;0OBSERVED&quot;&gt;/&lt;/div&gt;&lt;div data--h-bstatus=&quot;0OBSERVED&quot;&gt;GET&lt;/div&gt;&lt;div data--h-bstatus=&quot;0OBSERVED&quot;&gt;response: 200 ok [PostId]&lt;/div&gt;&lt;div data--h-bstatus=&quot;0OBSERVED&quot;&gt;&lt;br data--h-bstatus=&quot;0OBSERVED&quot;&gt;&lt;/div&gt;&lt;div data--h-bstatus=&quot;0OBSERVED&quot;&gt;get post&lt;/div&gt;&lt;div data--h-bstatus=&quot;0OBSERVED&quot;&gt;private (user)&lt;/div&gt;&lt;div data--h-bstatus=&quot;0OBSERVED&quot;&gt;/:id&lt;/div&gt;&lt;div data--h-bstatus=&quot;0OBSERVED&quot;&gt;GET&lt;/div&gt;&lt;div data--h-bstatus=&quot;0OBSERVED&quot;&gt;response 200 ok Post&lt;/div&gt;&lt;div data--h-bstatus=&quot;0OBSERVED&quot;&gt;&lt;br data--h-bstatus=&quot;0OBSERVED&quot;&gt;&lt;/div&gt;&lt;div data--h-bstatus=&quot;0OBSERVED&quot;&gt;modify post&lt;/div&gt;&lt;div data--h-bstatus=&quot;0OBSERVED&quot;&gt;private (user)&lt;/div&gt;&lt;div data--h-bstatus=&quot;0OBSERVED&quot;&gt;/:id(postProps)&lt;/div&gt;&lt;div data--h-bstatus=&quot;0OBSERVED&quot;&gt;PUT&lt;/div&gt;&lt;div data--h-bstatus=&quot;0OBSERVED&quot;&gt;response: 200 ok Post&lt;/div&gt;&lt;div data--h-bstatus=&quot;0OBSERVED&quot;&gt;&lt;br data--h-bstatus=&quot;0OBSERVED&quot;&gt;&lt;/div&gt;&lt;div data--h-bstatus=&quot;0OBSERVED&quot;&gt;delete post&lt;/div&gt;&lt;div data--h-bstatus=&quot;0OBSERVED&quot;&gt;private (user)&lt;/div&gt;&lt;div data--h-bstatus=&quot;0OBSERVED&quot;&gt;/:id&lt;/div&gt;&lt;div data--h-bstatus=&quot;0OBSERVED&quot;&gt;DELETE&lt;/div&gt;&lt;div data--h-bstatus=&quot;0OBSERVED&quot;&gt;response: 200 ok {status: success}&lt;/div&gt;" style="text;html=1;align=left;verticalAlign=middle;resizable=0;points=[];autosize=1;strokeColor=none;fillColor=none;" parent="Nc96AKdkwotpxMe6lG0i-9" vertex="1">
          <mxGeometry x="300" y="60" width="210" height="480" as="geometry" />
        </mxCell>
        <mxCell id="EkvZqwAjZva3UiWNqc4I-2" value="&lt;div data--h-bstatus=&quot;0OBSERVED&quot;&gt;&lt;b style=&quot;font-size: 16px; background-color: transparent; color: light-dark(rgb(0, 0, 0), rgb(255, 255, 255));&quot; data--h-bstatus=&quot;0OBSERVED&quot;&gt;Time&lt;/b&gt;&lt;/div&gt;&lt;div data--h-bstatus=&quot;0OBSERVED&quot;&gt;&lt;b style=&quot;font-size: 16px; background-color: transparent; color: light-dark(rgb(0, 0, 0), rgb(255, 255, 255));&quot; data--h-bstatus=&quot;0OBSERVED&quot;&gt;/time&lt;/b&gt;&lt;/div&gt;&lt;div data--h-bstatus=&quot;0OBSERVED&quot;&gt;&lt;br data--h-bstatus=&quot;0OBSERVED&quot;&gt;&lt;/div&gt;&lt;div data--h-bstatus=&quot;0OBSERVED&quot;&gt;get profiles that have a configured post&lt;/div&gt;&lt;div data--h-bstatus=&quot;0OBSERVED&quot;&gt;for the next hour&lt;/div&gt;&lt;div data--h-bstatus=&quot;0OBSERVED&quot;&gt;&lt;span data--h-bstatus=&quot;0OBSERVED&quot; style=&quot;background-color: transparent; color: light-dark(rgb(0, 0, 0), rgb(255, 255, 255));&quot;&gt;private (server)&lt;/span&gt;&lt;/div&gt;&lt;div data--h-bstatus=&quot;0OBSERVED&quot;&gt;/&lt;/div&gt;&lt;div data--h-bstatus=&quot;0OBSERVED&quot;&gt;GET&lt;/div&gt;&lt;div data--h-bstatus=&quot;0OBSERVED&quot;&gt;response: 200 ok [ProfileId]&lt;/div&gt;" style="text;html=1;align=left;verticalAlign=middle;resizable=0;points=[];autosize=1;strokeColor=none;fillColor=none;" vertex="1" parent="Nc96AKdkwotpxMe6lG0i-9">
          <mxGeometry x="30" y="695" width="230" height="150" as="geometry" />
        </mxCell>
        <mxCell id="Nc96AKdkwotpxMe6lG0i-18" value="" style="group" parent="1" vertex="1" connectable="0">
          <mxGeometry x="20" y="40" width="790" height="290" as="geometry" />
        </mxCell>
        <mxCell id="Nc96AKdkwotpxMe6lG0i-19" value="" style="whiteSpace=wrap;html=1;fontSize=11;" parent="Nc96AKdkwotpxMe6lG0i-18" vertex="1">
          <mxGeometry width="790" height="280" as="geometry" />
        </mxCell>
        <mxCell id="Nc96AKdkwotpxMe6lG0i-20" value="&lt;h1 data--h-bstatus=&quot;0OBSERVED&quot; style=&quot;margin-top: 0px;&quot;&gt;&lt;span data--h-bstatus=&quot;0OBSERVED&quot; style=&quot;background-color: transparent; color: light-dark(rgb(0, 0, 0), rgb(255, 255, 255));&quot;&gt;&lt;font data--h-bstatus=&quot;0OBSERVED&quot; style=&quot;font-size: 15px;&quot;&gt;Functional requirements&lt;/font&gt;&lt;/span&gt;&lt;/h1&gt;&lt;div data--h-bstatus=&quot;0OBSERVED&quot;&gt;&lt;span data--h-bstatus=&quot;0OBSERVED&quot; style=&quot;font-size: 12px; font-weight: 400; background-color: transparent; color: light-dark(rgb(0, 0, 0), rgb(255, 255, 255)); line-height: 100%;&quot;&gt;users have a list of posts that&#39;s been scheduled and published over and over&lt;/span&gt;&lt;/div&gt;&lt;div data--h-bstatus=&quot;0OBSERVED&quot;&gt;&lt;span data--h-bstatus=&quot;0OBSERVED&quot; style=&quot;font-size: 12px; font-weight: 400; background-color: transparent; color: light-dark(rgb(0, 0, 0), rgb(255, 255, 255)); line-height: 100%;&quot;&gt;publish to a group or a page&lt;/span&gt;&lt;/div&gt;&lt;div data--h-bstatus=&quot;0OBSERVED&quot;&gt;&lt;span data--h-bstatus=&quot;0OBSERVED&quot; style=&quot;background-color: transparent; color: light-dark(rgb(0, 0, 0), rgb(255, 255, 255));&quot;&gt;publish to multiple platforms&lt;/span&gt;&lt;/div&gt;&lt;div data--h-bstatus=&quot;0OBSERVED&quot;&gt;a clever way to add variable data to posts&lt;/div&gt;&lt;div data--h-bstatus=&quot;0OBSERVED&quot;&gt;avoid crossposting&lt;/div&gt;&lt;div data--h-bstatus=&quot;0OBSERVED&quot;&gt;make reporpusing more easier with ai&lt;/div&gt;&lt;div data--h-bstatus=&quot;0OBSERVED&quot;&gt;analytics&lt;/div&gt;&lt;div data--h-bstatus=&quot;0OBSERVED&quot;&gt;make content burnout easier&lt;/div&gt;" style="text;html=1;whiteSpace=wrap;overflow=hidden;rounded=0;" parent="Nc96AKdkwotpxMe6lG0i-18" vertex="1">
          <mxGeometry x="20" y="60" width="370" height="190" as="geometry" />
        </mxCell>
        <mxCell id="Nc96AKdkwotpxMe6lG0i-21" value="&lt;h1 data--h-bstatus=&quot;0OBSERVED&quot; style=&quot;margin-top: 0px;&quot;&gt;&lt;span data--h-bstatus=&quot;0OBSERVED&quot; style=&quot;background-color: transparent; color: light-dark(rgb(0, 0, 0), rgb(255, 255, 255));&quot;&gt;&lt;font data--h-bstatus=&quot;0OBSERVED&quot; style=&quot;font-size: 15px;&quot;&gt;Non-functional requirements&lt;/font&gt;&lt;/span&gt;&lt;/h1&gt;&lt;h1 data--h-bstatus=&quot;0OBSERVED&quot; style=&quot;margin-top: 0px; line-height: 0%;&quot;&gt;&lt;span data--h-bstatus=&quot;0OBSERVED&quot; style=&quot;font-size: 12px; font-weight: 400;&quot;&gt;1. scalability: normal&lt;/span&gt;&lt;/h1&gt;&lt;h1 data--h-bstatus=&quot;0OBSERVED&quot; style=&quot;margin-top: 0px; line-height: 0%;&quot;&gt;&lt;span data--h-bstatus=&quot;0OBSERVED&quot; style=&quot;background-color: transparent; color: light-dark(rgb(0, 0, 0), rgb(255, 255, 255)); font-size: 12px; font-weight: 400;&quot;&gt;2. availability: should be always active to schedule posts&lt;/span&gt;&lt;/h1&gt;&lt;h1 data--h-bstatus=&quot;0OBSERVED&quot; style=&quot;margin-top: 0px; line-height: 0%;&quot;&gt;&lt;span data--h-bstatus=&quot;0OBSERVED&quot; style=&quot;background-color: transparent; color: light-dark(rgb(0, 0, 0), rgb(255, 255, 255)); font-size: 12px; font-weight: 400;&quot;&gt;3. latency: shouldn&#39;t be a bad experience&lt;/span&gt;&lt;/h1&gt;&lt;h1 data--h-bstatus=&quot;0OBSERVED&quot; style=&quot;margin-top: 0px; line-height: 0%;&quot;&gt;&lt;span data--h-bstatus=&quot;0OBSERVED&quot; style=&quot;background-color: transparent; color: light-dark(rgb(0, 0, 0), rgb(255, 255, 255)); font-size: 12px; font-weight: normal;&quot;&gt;4. consistency: important&lt;/span&gt;&lt;/h1&gt;&lt;div data--h-bstatus=&quot;0OBSERVED&quot; style=&quot;line-height: 0%;&quot;&gt;&lt;span data--h-bstatus=&quot;0OBSERVED&quot; style=&quot;background-color: transparent; color: light-dark(rgb(0, 0, 0), rgb(255, 255, 255));&quot;&gt;5. calculations: normal&lt;/span&gt;&lt;/div&gt;" style="text;html=1;whiteSpace=wrap;overflow=hidden;rounded=0;" parent="Nc96AKdkwotpxMe6lG0i-18" vertex="1">
          <mxGeometry x="420" y="80" width="350" height="150" as="geometry" />
        </mxCell>
        <mxCell id="Nc96AKdkwotpxMe6lG0i-22" value="&lt;font style=&quot;font-size: 16px;&quot;&gt;&lt;b&gt;Requirements&lt;/b&gt;&lt;/font&gt;" style="text;html=1;align=center;verticalAlign=middle;resizable=0;points=[];autosize=1;strokeColor=none;fillColor=none;" parent="Nc96AKdkwotpxMe6lG0i-18" vertex="1">
          <mxGeometry x="310" width="130" height="30" as="geometry" />
        </mxCell>
        <mxCell id="Nc96AKdkwotpxMe6lG0i-36" value="" style="group" parent="1" vertex="1" connectable="0">
          <mxGeometry x="730" y="780" width="640" height="214" as="geometry" />
        </mxCell>
        <mxCell id="Nc96AKdkwotpxMe6lG0i-37" value="" style="whiteSpace=wrap;html=1;fontSize=11;" parent="Nc96AKdkwotpxMe6lG0i-36" vertex="1">
          <mxGeometry width="640" height="210" as="geometry" />
        </mxCell>
        <mxCell id="Nc96AKdkwotpxMe6lG0i-38" value="&lt;div data--h-bstatus=&quot;0OBSERVED&quot;&gt;&lt;b data--h-bstatus=&quot;0OBSERVED&quot; style=&quot;font-size: 16px; background-color: transparent; color: light-dark(rgb(0, 0, 0), rgb(255, 255, 255));&quot;&gt;main use case&lt;/b&gt;&lt;/div&gt;&lt;div data--h-bstatus=&quot;0OBSERVED&quot;&gt;&lt;br data--h-bstatus=&quot;0OBSERVED&quot;&gt;&lt;/div&gt;&lt;div data--h-bstatus=&quot;0OBSERVED&quot;&gt;actor: user&lt;/div&gt;&lt;div data--h-bstatus=&quot;0OBSERVED&quot;&gt;&lt;br data--h-bstatus=&quot;0OBSERVED&quot;&gt;&lt;/div&gt;&lt;div data--h-bstatus=&quot;0OBSERVED&quot;&gt;scenario:&lt;/div&gt;&lt;div data--h-bstatus=&quot;0OBSERVED&quot;&gt;user should be able to configure day intervals,&lt;/div&gt;&lt;div data--h-bstatus=&quot;0OBSERVED&quot;&gt;times&amp;nbsp;&lt;span data--h-bstatus=&quot;0OBSERVED&quot; style=&quot;background-color: transparent; color: light-dark(rgb(0, 0, 0), rgb(255, 255, 255));&quot;&gt;to post, add posts data, then view&amp;nbsp;&lt;/span&gt;&lt;/div&gt;&lt;div data--h-bstatus=&quot;0OBSERVED&quot;&gt;&lt;span data--h-bstatus=&quot;0OBSERVED&quot; style=&quot;background-color: transparent; color: light-dark(rgb(0, 0, 0), rgb(255, 255, 255));&quot;&gt;scheduled and&amp;nbsp;&lt;/span&gt;&lt;span data--h-bstatus=&quot;0OBSERVED&quot; style=&quot;background-color: transparent; color: light-dark(rgb(0, 0, 0), rgb(255, 255, 255));&quot;&gt;published posts&lt;/span&gt;&lt;/div&gt;" style="text;html=1;align=left;verticalAlign=middle;resizable=0;points=[];autosize=1;strokeColor=none;fillColor=none;" parent="Nc96AKdkwotpxMe6lG0i-36" vertex="1">
          <mxGeometry x="30" y="65" width="270" height="130" as="geometry" />
        </mxCell>
        <mxCell id="Nc96AKdkwotpxMe6lG0i-39" value="&lt;font style=&quot;font-size: 16px;&quot;&gt;&lt;b&gt;Use cases&lt;/b&gt;&lt;/font&gt;" style="text;html=1;align=center;verticalAlign=middle;resizable=0;points=[];autosize=1;strokeColor=none;fillColor=none;" parent="Nc96AKdkwotpxMe6lG0i-36" vertex="1">
          <mxGeometry x="480" y="15" width="100" height="30" as="geometry" />
        </mxCell>
        <mxCell id="H-i4VCKOyVgDC0gI0cPH-2" value="&lt;div data--h-bstatus=&quot;0OBSERVED&quot;&gt;&lt;span data--h-bstatus=&quot;0OBSERVED&quot; style=&quot;font-size: 16px;&quot;&gt;&lt;b data--h-bstatus=&quot;0OBSERVED&quot;&gt;scheduling&lt;/b&gt;&lt;/span&gt;&lt;/div&gt;&lt;div data--h-bstatus=&quot;0OBSERVED&quot;&gt;&lt;span data--h-bstatus=&quot;0OBSERVED&quot; style=&quot;font-size: 16px;&quot;&gt;&lt;b data--h-bstatus=&quot;0OBSERVED&quot;&gt;&lt;br data--h-bstatus=&quot;0OBSERVED&quot;&gt;&lt;/b&gt;&lt;/span&gt;&lt;/div&gt;&lt;div data--h-bstatus=&quot;0OBSERVED&quot;&gt;actor: system&lt;/div&gt;&lt;div data--h-bstatus=&quot;0OBSERVED&quot;&gt;&lt;br data--h-bstatus=&quot;0OBSERVED&quot;&gt;&lt;/div&gt;&lt;div data--h-bstatus=&quot;0OBSERVED&quot;&gt;scenario:&lt;/div&gt;&lt;div data--h-bstatus=&quot;0OBSERVED&quot;&gt;system should be able to store posts data provided by&lt;/div&gt;&lt;div data--h-bstatus=&quot;0OBSERVED&quot;&gt;user, schedule them to be published on time, posting&lt;/div&gt;&lt;div data--h-bstatus=&quot;0OBSERVED&quot;&gt;to groups or publishing for a page&lt;/div&gt;" style="text;html=1;align=left;verticalAlign=middle;resizable=0;points=[];autosize=1;strokeColor=none;fillColor=none;" parent="Nc96AKdkwotpxMe6lG0i-36" vertex="1">
          <mxGeometry x="320" y="60" width="310" height="140" as="geometry" />
        </mxCell>
        <mxCell id="H-i4VCKOyVgDC0gI0cPH-1" value="" style="group" parent="1" vertex="1" connectable="0">
          <mxGeometry x="730" y="350" width="640" height="400" as="geometry" />
        </mxCell>
        <mxCell id="Nc96AKdkwotpxMe6lG0i-23" value="" style="whiteSpace=wrap;html=1;fontSize=11;" parent="H-i4VCKOyVgDC0gI0cPH-1" vertex="1">
          <mxGeometry width="640" height="400" as="geometry" />
        </mxCell>
        <mxCell id="Nc96AKdkwotpxMe6lG0i-24" value="&lt;div data--h-bstatus=&quot;0OBSERVED&quot;&gt;&lt;b data--h-bstatus=&quot;0OBSERVED&quot; style=&quot;font-size: 16px; background-color: transparent; color: light-dark(rgb(0, 0, 0), rgb(255, 255, 255));&quot;&gt;Profile&lt;/b&gt;&lt;/div&gt;&lt;div data--h-bstatus=&quot;0OBSERVED&quot;&gt;&lt;br data--h-bstatus=&quot;0OBSERVED&quot;&gt;&lt;/div&gt;&lt;div data--h-bstatus=&quot;0OBSERVED&quot;&gt;{&lt;/div&gt;&lt;div data--h-bstatus=&quot;0OBSERVED&quot;&gt;id: ObjectId,&lt;/div&gt;&lt;div data--h-bstatus=&quot;0OBSERVED&quot;&gt;userId: ObjectId,&lt;/div&gt;&lt;div data--h-bstatus=&quot;0OBSERVED&quot;&gt;times: [Time],&lt;/div&gt;&lt;div data--h-bstatus=&quot;0OBSERVED&quot;&gt;daysInterval: number,&lt;/div&gt;&lt;div data--h-bstatus=&quot;0OBSERVED&quot;&gt;postsData: [PostData],&lt;/div&gt;&lt;div data--h-bstatus=&quot;0OBSERVED&quot;&gt;posts: [PostId],&lt;/div&gt;&lt;div data--h-bstatus=&quot;0OBSERVED&quot;&gt;type: enum {Group, Page},&lt;/div&gt;&lt;div data--h-bstatus=&quot;0OBSERVED&quot;&gt;accessData: Cookies | accessToken,&lt;/div&gt;&lt;div data--h-bstatus=&quot;0OBSERVED&quot;&gt;timestamps: true,&lt;/div&gt;&lt;div data--h-bstatus=&quot;0OBSERVED&quot;&gt;&lt;span data--h-bstatus=&quot;0OBSERVED&quot; style=&quot;background-color: transparent; color: light-dark(rgb(0, 0, 0), rgb(255, 255, 255));&quot;&gt;}&lt;/span&gt;&lt;/div&gt;" style="text;html=1;align=left;verticalAlign=middle;resizable=0;points=[];autosize=1;strokeColor=none;fillColor=none;" parent="H-i4VCKOyVgDC0gI0cPH-1" vertex="1">
          <mxGeometry x="30" y="35" width="220" height="210" as="geometry" />
        </mxCell>
        <mxCell id="Nc96AKdkwotpxMe6lG0i-25" value="&lt;div data--h-bstatus=&quot;0OBSERVED&quot;&gt;&lt;b data--h-bstatus=&quot;0OBSERVED&quot; style=&quot;font-size: 16px; background-color: transparent; color: light-dark(rgb(0, 0, 0), rgb(255, 255, 255));&quot;&gt;PostData&lt;/b&gt;&lt;/div&gt;&lt;div data--h-bstatus=&quot;0OBSERVED&quot;&gt;&lt;br data--h-bstatus=&quot;0OBSERVED&quot;&gt;&lt;/div&gt;&lt;div data--h-bstatus=&quot;0OBSERVED&quot;&gt;{&lt;/div&gt;&lt;div data--h-bstatus=&quot;0OBSERVED&quot;&gt;&lt;span data--h-bstatus=&quot;0OBSERVED&quot; style=&quot;white-space: pre;&quot;&gt;&#x9;&lt;/span&gt;id: ObjectId,&lt;/div&gt;&lt;div data--h-bstatus=&quot;0OBSERVED&quot;&gt;&lt;span data--h-bstatus=&quot;0OBSERVED&quot; style=&quot;white-space: pre;&quot;&gt;&lt;span data--h-bstatus=&quot;0OBSERVED&quot; style=&quot;white-space: pre;&quot;&gt;&#x9;&lt;/span&gt;type: enum {photo, multi, video},&lt;/span&gt;&lt;/div&gt;&lt;div data--h-bstatus=&quot;0OBSERVED&quot;&gt;&lt;span data--h-bstatus=&quot;0OBSERVED&quot; style=&quot;white-space: pre;&quot;&gt;&lt;span data--h-bstatus=&quot;0OBSERVED&quot; style=&quot;white-space: pre;&quot;&gt;&#x9;&lt;/span&gt;fileLinks: [string],&lt;/span&gt;&lt;/div&gt;&lt;div data--h-bstatus=&quot;0OBSERVED&quot;&gt;&lt;span data--h-bstatus=&quot;0OBSERVED&quot; style=&quot;white-space: pre;&quot;&gt;&lt;span data--h-bstatus=&quot;0OBSERVED&quot; style=&quot;white-space: pre;&quot;&gt;&#x9;&lt;/span&gt;text: string,&lt;/span&gt;&lt;/div&gt;&lt;div data--h-bstatus=&quot;0OBSERVED&quot;&gt;&lt;span style=&quot;background-color: transparent; color: light-dark(rgb(0, 0, 0), rgb(255, 255, 255)); white-space-collapse: preserve;&quot; data--h-bstatus=&quot;0OBSERVED&quot;&gt;&lt;span data--h-bstatus=&quot;0OBSERVED&quot; style=&quot;white-space: pre;&quot;&gt;&#x9;&lt;/span&gt;timestamps: true&lt;/span&gt;&lt;/div&gt;&lt;div data--h-bstatus=&quot;0OBSERVED&quot;&gt;}&lt;/div&gt;" style="text;html=1;align=left;verticalAlign=middle;resizable=0;points=[];autosize=1;strokeColor=none;fillColor=none;" parent="H-i4VCKOyVgDC0gI0cPH-1" vertex="1">
          <mxGeometry x="330" y="45" width="220" height="150" as="geometry" />
        </mxCell>
        <mxCell id="Nc96AKdkwotpxMe6lG0i-27" value="&lt;font style=&quot;font-size: 16px;&quot;&gt;&lt;b&gt;Data models&lt;/b&gt;&lt;/font&gt;" style="text;html=1;align=center;verticalAlign=middle;resizable=0;points=[];autosize=1;strokeColor=none;fillColor=none;" parent="H-i4VCKOyVgDC0gI0cPH-1" vertex="1">
          <mxGeometry x="470" y="15" width="120" height="30" as="geometry" />
        </mxCell>
        <mxCell id="Nc96AKdkwotpxMe6lG0i-51" value="&lt;div data--h-bstatus=&quot;0OBSERVED&quot;&gt;&lt;span data--h-bstatus=&quot;0OBSERVED&quot; style=&quot;font-size: 16px;&quot;&gt;&lt;b data--h-bstatus=&quot;0OBSERVED&quot;&gt;Post&lt;/b&gt;&lt;/span&gt;&lt;/div&gt;&lt;div data--h-bstatus=&quot;0OBSERVED&quot;&gt;&lt;br data--h-bstatus=&quot;0OBSERVED&quot;&gt;&lt;/div&gt;&lt;div data--h-bstatus=&quot;0OBSERVED&quot;&gt;{&lt;/div&gt;&lt;div data--h-bstatus=&quot;0OBSERVED&quot;&gt;&lt;span data--h-bstatus=&quot;0OBSERVED&quot; style=&quot;white-space: pre;&quot;&gt;&#x9;&lt;/span&gt;id: ObjectId,&lt;/div&gt;&lt;div data--h-bstatus=&quot;0OBSERVED&quot;&gt;&lt;span data--h-bstatus=&quot;0OBSERVED&quot; style=&quot;white-space: pre;&quot;&gt;&#x9;&lt;/span&gt;postDataId: PostDataId,&lt;br data--h-bstatus=&quot;0OBSERVED&quot;&gt;&lt;/div&gt;&lt;div data--h-bstatus=&quot;0OBSERVED&quot;&gt;&lt;span data--h-bstatus=&quot;0OBSERVED&quot; style=&quot;white-space: pre;&quot;&gt;&#x9;&lt;/span&gt;status: PostStatus,&lt;/div&gt;&lt;div data--h-bstatus=&quot;0OBSERVED&quot;&gt;&lt;span data--h-bstatus=&quot;0OBSERVED&quot; style=&quot;white-space: pre;&quot;&gt;&#x9;&lt;/span&gt;publishedAt: timestamp,&lt;br data--h-bstatus=&quot;0OBSERVED&quot;&gt;&lt;/div&gt;&lt;div data--h-bstatus=&quot;0OBSERVED&quot;&gt;&lt;span style=&quot;background-color: transparent; color: light-dark(rgb(0, 0, 0), rgb(255, 255, 255)); white-space-collapse: preserve;&quot; data--h-bstatus=&quot;0OBSERVED&quot;&gt;&lt;span data--h-bstatus=&quot;0OBSERVED&quot; style=&quot;white-space: pre;&quot;&gt;&#x9;&lt;/span&gt;Timestamps: true,&lt;/span&gt;&lt;span style=&quot;background-color: transparent; color: light-dark(rgb(0, 0, 0), rgb(255, 255, 255)); white-space-collapse: preserve;&quot; data--h-bstatus=&quot;0OBSERVED&quot;&gt;&#x9;&lt;/span&gt;&lt;span style=&quot;background-color: transparent; color: light-dark(rgb(0, 0, 0), rgb(255, 255, 255)); white-space-collapse: preserve;&quot; data--h-bstatus=&quot;0OBSERVED&quot;&gt;&#x9;&lt;/span&gt;&lt;/div&gt;&lt;div data--h-bstatus=&quot;0OBSERVED&quot;&gt;}&lt;/div&gt;" style="text;html=1;align=left;verticalAlign=middle;resizable=0;points=[];autosize=1;strokeColor=none;fillColor=none;" parent="H-i4VCKOyVgDC0gI0cPH-1" vertex="1">
          <mxGeometry x="330" y="190" width="180" height="150" as="geometry" />
        </mxCell>
        <mxCell id="Nc96AKdkwotpxMe6lG0i-52" value="&lt;div data--h-bstatus=&quot;0OBSERVED&quot;&gt;&lt;span data--h-bstatus=&quot;0OBSERVED&quot; style=&quot;font-size: 16px;&quot;&gt;&lt;b data--h-bstatus=&quot;0OBSERVED&quot;&gt;PostStatus (Enum)&lt;/b&gt;&lt;/span&gt;&lt;/div&gt;&lt;div data--h-bstatus=&quot;0OBSERVED&quot;&gt;&lt;span data--h-bstatus=&quot;0OBSERVED&quot; style=&quot;background-color: transparent; color: light-dark(rgb(0, 0, 0), rgb(255, 255, 255));&quot;&gt;&lt;br data--h-bstatus=&quot;0OBSERVED&quot;&gt;&lt;/span&gt;&lt;/div&gt;&lt;div data--h-bstatus=&quot;0OBSERVED&quot;&gt;&lt;span data--h-bstatus=&quot;0OBSERVED&quot; style=&quot;background-color: transparent; color: light-dark(rgb(0, 0, 0), rgb(255, 255, 255));&quot;&gt;enum { Pending, Scheduled, Published,&amp;nbsp;&lt;/span&gt;&lt;span style=&quot;background-color: transparent; color: light-dark(rgb(0, 0, 0), rgb(255, 255, 255));&quot; data--h-bstatus=&quot;0OBSERVED&quot;&gt;Cancelled}&lt;/span&gt;&lt;/div&gt;" style="text;html=1;align=left;verticalAlign=middle;resizable=0;points=[];autosize=1;strokeColor=none;fillColor=none;" parent="H-i4VCKOyVgDC0gI0cPH-1" vertex="1">
          <mxGeometry x="330" y="338" width="300" height="60" as="geometry" />
        </mxCell>
        <mxCell id="EkvZqwAjZva3UiWNqc4I-1" value="&lt;div data--h-bstatus=&quot;0OBSERVED&quot;&gt;&lt;span data--h-bstatus=&quot;0OBSERVED&quot; style=&quot;font-size: 16px;&quot;&gt;&lt;b data--h-bstatus=&quot;0OBSERVED&quot;&gt;Time&lt;/b&gt;&lt;/span&gt;&lt;/div&gt;&lt;div data--h-bstatus=&quot;0OBSERVED&quot;&gt;&lt;span data--h-bstatus=&quot;0OBSERVED&quot; style=&quot;background-color: transparent; color: light-dark(rgb(0, 0, 0), rgb(255, 255, 255));&quot;&gt;&lt;br data--h-bstatus=&quot;0OBSERVED&quot;&gt;&lt;/span&gt;&lt;/div&gt;&lt;div data--h-bstatus=&quot;0OBSERVED&quot;&gt;&lt;span data--h-bstatus=&quot;0OBSERVED&quot; style=&quot;background-color: transparent; color: light-dark(rgb(0, 0, 0), rgb(255, 255, 255));&quot;&gt;{&lt;/span&gt;&lt;/div&gt;&lt;div data--h-bstatus=&quot;0OBSERVED&quot;&gt;&lt;span style=&quot;background-color: transparent; color: light-dark(rgb(0, 0, 0), rgb(255, 255, 255));&quot; data--h-bstatus=&quot;0OBSERVED&quot;&gt;&lt;span data--h-bstatus=&quot;0OBSERVED&quot; style=&quot;white-space: pre;&quot;&gt;&#x9;&lt;/span&gt;hour(primary key): number&lt;br data--h-bstatus=&quot;0OBSERVED&quot;&gt;&lt;/span&gt;&lt;/div&gt;&lt;div data--h-bstatus=&quot;0OBSERVED&quot;&gt;&lt;span style=&quot;background-color: transparent; color: light-dark(rgb(0, 0, 0), rgb(255, 255, 255)); white-space-collapse: preserve;&quot; data--h-bstatus=&quot;0OBSERVED&quot;&gt;&#x9;&lt;/span&gt;&lt;span style=&quot;background-color: transparent; color: light-dark(rgb(0, 0, 0), rgb(255, 255, 255));&quot;&gt;profiles: [{&lt;/span&gt;&lt;/div&gt;&lt;div data--h-bstatus=&quot;0OBSERVED&quot;&gt;&lt;span style=&quot;background-color: transparent; color: light-dark(rgb(0, 0, 0), rgb(255, 255, 255));&quot;&gt;&lt;span style=&quot;white-space: pre;&quot;&gt;&#x9;&lt;/span&gt;&lt;span style=&quot;white-space: pre;&quot;&gt;&#x9;&lt;/span&gt;profileId: ObjectId,&lt;br&gt;&lt;/span&gt;&lt;/div&gt;&lt;div data--h-bstatus=&quot;0OBSERVED&quot;&gt;&lt;span style=&quot;background-color: transparent; color: light-dark(rgb(0, 0, 0), rgb(255, 255, 255));&quot;&gt;&lt;span style=&quot;white-space: pre;&quot;&gt;&#x9;&lt;/span&gt;&lt;span style=&quot;white-space: pre;&quot;&gt;&#x9;&lt;/span&gt;minutes: number&lt;br&gt;&lt;/span&gt;&lt;/div&gt;&lt;div data--h-bstatus=&quot;0OBSERVED&quot;&gt;&lt;span style=&quot;background-color: transparent; color: light-dark(rgb(0, 0, 0), rgb(255, 255, 255));&quot; data--h-bstatus=&quot;0OBSERVED&quot;&gt;&lt;span style=&quot;white-space: pre;&quot;&gt;&#x9;&lt;/span&gt;}]&lt;br data--h-bstatus=&quot;0OBSERVED&quot;&gt;&lt;/span&gt;&lt;/div&gt;&lt;div data--h-bstatus=&quot;0OBSERVED&quot;&gt;&lt;/div&gt;&lt;div data--h-bstatus=&quot;0OBSERVED&quot;&gt;&lt;/div&gt;&lt;div data--h-bstatus=&quot;0OBSERVED&quot;&gt;&lt;span style=&quot;background-color: transparent; color: light-dark(rgb(0, 0, 0), rgb(255, 255, 255));&quot;&gt;}&lt;/span&gt;&lt;/div&gt;" style="text;html=1;align=left;verticalAlign=middle;resizable=0;points=[];autosize=1;strokeColor=none;fillColor=none;" vertex="1" parent="H-i4VCKOyVgDC0gI0cPH-1">
          <mxGeometry x="30" y="240" width="190" height="150" as="geometry" />
        </mxCell>
      </root>
    </mxGraphModel>
  </diagram>
  <diagram id="oDd5ANrdaxMVgBuEbNdm" name="main">
    <mxGraphModel dx="63" dy="454" grid="1" gridSize="10" guides="1" tooltips="1" connect="1" arrows="1" fold="1" page="1" pageScale="1" pageWidth="850" pageHeight="1100" math="0" shadow="0">
      <root>
        <mxCell id="0" />
        <mxCell id="1" parent="0" />
        <mxCell id="1PGbmvX5maBW0LA0Hvin-1" value="" style="group" parent="1" vertex="1" connectable="0">
          <mxGeometry x="870" y="780" width="320" height="168" as="geometry" />
        </mxCell>
        <mxCell id="1PGbmvX5maBW0LA0Hvin-2" value="" style="whiteSpace=wrap;html=1;fontSize=11;" parent="1PGbmvX5maBW0LA0Hvin-1" vertex="1">
          <mxGeometry width="320" height="170" as="geometry" />
        </mxCell>
        <mxCell id="1PGbmvX5maBW0LA0Hvin-3" value="&lt;div data--h-bstatus=&quot;0OBSERVED&quot;&gt;&lt;b data--h-bstatus=&quot;0OBSERVED&quot; style=&quot;font-size: 16px; background-color: transparent; color: light-dark(rgb(0, 0, 0), rgb(255, 255, 255));&quot;&gt;main use case&lt;/b&gt;&lt;/div&gt;&lt;div data--h-bstatus=&quot;0OBSERVED&quot;&gt;&lt;br data--h-bstatus=&quot;0OBSERVED&quot;&gt;&lt;/div&gt;&lt;div data--h-bstatus=&quot;0OBSERVED&quot;&gt;actor: user&lt;/div&gt;&lt;div data--h-bstatus=&quot;0OBSERVED&quot;&gt;&lt;br data--h-bstatus=&quot;0OBSERVED&quot;&gt;&lt;/div&gt;&lt;div data--h-bstatus=&quot;0OBSERVED&quot;&gt;scenario:&lt;/div&gt;&lt;div data--h-bstatus=&quot;0OBSERVED&quot;&gt;user should be able to configure day intervals,&lt;/div&gt;&lt;div data--h-bstatus=&quot;0OBSERVED&quot;&gt;times&amp;nbsp;&lt;span data--h-bstatus=&quot;0OBSERVED&quot; style=&quot;background-color: transparent; color: light-dark(rgb(0, 0, 0), rgb(255, 255, 255));&quot;&gt;to post, add posts data, then view&amp;nbsp;&lt;/span&gt;&lt;/div&gt;&lt;div data--h-bstatus=&quot;0OBSERVED&quot;&gt;&lt;span data--h-bstatus=&quot;0OBSERVED&quot; style=&quot;background-color: transparent; color: light-dark(rgb(0, 0, 0), rgb(255, 255, 255));&quot;&gt;scheduled and&amp;nbsp;&lt;/span&gt;&lt;span data--h-bstatus=&quot;0OBSERVED&quot; style=&quot;background-color: transparent; color: light-dark(rgb(0, 0, 0), rgb(255, 255, 255));&quot;&gt;published posts&lt;/span&gt;&lt;/div&gt;" style="text;html=1;align=left;verticalAlign=middle;resizable=0;points=[];autosize=1;strokeColor=none;fillColor=none;" parent="1PGbmvX5maBW0LA0Hvin-1" vertex="1">
          <mxGeometry x="30" y="20" width="270" height="130" as="geometry" />
        </mxCell>
        <mxCell id="1PGbmvX5maBW0LA0Hvin-6" value="" style="shape=umlLifeline;perimeter=lifelinePerimeter;whiteSpace=wrap;html=1;container=1;dropTarget=0;collapsible=0;recursiveResize=0;outlineConnect=0;portConstraint=eastwest;newEdgeStyle={&quot;curved&quot;:0,&quot;rounded&quot;:0};participant=umlActor;size=60;" parent="1" vertex="1">
          <mxGeometry x="1020.01" y="1110" width="29.99" height="860" as="geometry" />
        </mxCell>
        <mxCell id="1PGbmvX5maBW0LA0Hvin-7" value="" style="html=1;points=[[0,0,0,0,5],[0,1,0,0,-5],[1,0,0,0,5],[1,1,0,0,-5]];perimeter=orthogonalPerimeter;outlineConnect=0;targetShapes=umlLifeline;portConstraint=eastwest;newEdgeStyle={&quot;curved&quot;:0,&quot;rounded&quot;:0};" parent="1PGbmvX5maBW0LA0Hvin-6" vertex="1">
          <mxGeometry x="10" y="72" width="10" height="788" as="geometry" />
        </mxCell>
        <mxCell id="1PGbmvX5maBW0LA0Hvin-8" value="user" style="text;html=1;align=center;verticalAlign=middle;resizable=0;points=[];autosize=1;strokeColor=none;fillColor=none;" parent="1" vertex="1">
          <mxGeometry x="1010" y="1080" width="50" height="30" as="geometry" />
        </mxCell>
        <mxCell id="1PGbmvX5maBW0LA0Hvin-9" value="dashboard ui" style="shape=umlLifeline;perimeter=lifelinePerimeter;whiteSpace=wrap;html=1;container=1;dropTarget=0;collapsible=0;recursiveResize=0;outlineConnect=0;portConstraint=eastwest;newEdgeStyle={&quot;curved&quot;:0,&quot;rounded&quot;:0};size=42;" parent="1" vertex="1">
          <mxGeometry x="1160" y="1110" width="100" height="850" as="geometry" />
        </mxCell>
        <mxCell id="1PGbmvX5maBW0LA0Hvin-10" value="" style="html=1;points=[[0,0,0,0,5],[0,1,0,0,-5],[1,0,0,0,5],[1,1,0,0,-5]];perimeter=orthogonalPerimeter;outlineConnect=0;targetShapes=umlLifeline;portConstraint=eastwest;newEdgeStyle={&quot;curved&quot;:0,&quot;rounded&quot;:0};" parent="1PGbmvX5maBW0LA0Hvin-9" vertex="1">
          <mxGeometry x="45" y="80" width="10" height="770" as="geometry" />
        </mxCell>
        <mxCell id="1PGbmvX5maBW0LA0Hvin-11" value="create a new post" style="html=1;verticalAlign=bottom;endArrow=block;curved=0;rounded=0;" parent="1" edge="1">
          <mxGeometry width="80" relative="1" as="geometry">
            <mxPoint x="1040" y="1590" as="sourcePoint" />
            <mxPoint x="1205" y="1590" as="targetPoint" />
          </mxGeometry>
        </mxCell>
        <mxCell id="1PGbmvX5maBW0LA0Hvin-12" value="check if user&amp;nbsp;&lt;div data--h-bstatus=&quot;0OBSERVED&quot;&gt;configured his profile&lt;/div&gt;" style="html=1;align=left;spacingLeft=2;endArrow=block;rounded=0;edgeStyle=orthogonalEdgeStyle;curved=0;rounded=0;" parent="1" edge="1">
          <mxGeometry relative="1" as="geometry">
            <mxPoint x="1216" y="1300" as="sourcePoint" />
            <Array as="points">
              <mxPoint x="1246" y="1330" />
            </Array>
            <mxPoint x="1221" y="1330" as="targetPoint" />
          </mxGeometry>
        </mxCell>
        <mxCell id="1PGbmvX5maBW0LA0Hvin-13" value="200 OK Profile 400 {status: failure}" style="html=1;verticalAlign=bottom;endArrow=open;dashed=1;endSize=8;curved=0;rounded=0;" parent="1" edge="1">
          <mxGeometry relative="1" as="geometry">
            <mxPoint x="1413" y="1268" as="sourcePoint" />
            <mxPoint x="1215" y="1268" as="targetPoint" />
          </mxGeometry>
        </mxCell>
        <mxCell id="1PGbmvX5maBW0LA0Hvin-14" value="show dialoge to enter&lt;div&gt;text and media&lt;/div&gt;" style="html=1;verticalAlign=bottom;endArrow=block;curved=0;rounded=0;" parent="1" edge="1">
          <mxGeometry width="80" relative="1" as="geometry">
            <mxPoint x="1205" y="1640" as="sourcePoint" />
            <mxPoint x="1040" y="1640" as="targetPoint" />
          </mxGeometry>
        </mxCell>
        <mxCell id="sfX6Y6t2FsTCowHZCcLG-1" value="API &amp;amp; DB" style="shape=umlLifeline;perimeter=lifelinePerimeter;whiteSpace=wrap;html=1;container=1;dropTarget=0;collapsible=0;recursiveResize=0;outlineConnect=0;portConstraint=eastwest;newEdgeStyle={&quot;curved&quot;:0,&quot;rounded&quot;:0};size=42;" vertex="1" parent="1">
          <mxGeometry x="1360" y="1110" width="100" height="850" as="geometry" />
        </mxCell>
        <mxCell id="sfX6Y6t2FsTCowHZCcLG-2" value="" style="html=1;points=[[0,0,0,0,5],[0,1,0,0,-5],[1,0,0,0,5],[1,1,0,0,-5]];perimeter=orthogonalPerimeter;outlineConnect=0;targetShapes=umlLifeline;portConstraint=eastwest;newEdgeStyle={&quot;curved&quot;:0,&quot;rounded&quot;:0};" vertex="1" parent="sfX6Y6t2FsTCowHZCcLG-1">
          <mxGeometry x="45" y="80" width="10" height="770" as="geometry" />
        </mxCell>
        <mxCell id="sfX6Y6t2FsTCowHZCcLG-3" value="enters the website" style="html=1;verticalAlign=bottom;endArrow=block;curved=0;rounded=0;" edge="1" parent="1">
          <mxGeometry width="80" relative="1" as="geometry">
            <mxPoint x="1040" y="1210" as="sourcePoint" />
            <mxPoint x="1205" y="1210" as="targetPoint" />
          </mxGeometry>
        </mxCell>
        <mxCell id="sfX6Y6t2FsTCowHZCcLG-5" value="opt" style="shape=umlFrame;whiteSpace=wrap;html=1;pointerEvents=0;" vertex="1" parent="1">
          <mxGeometry x="950" y="1350" width="560" height="200" as="geometry" />
        </mxCell>
        <mxCell id="sfX6Y6t2FsTCowHZCcLG-7" value="if not configured" style="text;html=1;align=center;verticalAlign=middle;resizable=0;points=[];autosize=1;strokeColor=none;fillColor=none;" vertex="1" parent="1">
          <mxGeometry x="1080" y="1360" width="110" height="30" as="geometry" />
        </mxCell>
        <mxCell id="sfX6Y6t2FsTCowHZCcLG-10" value="redirect(/config)" style="html=1;verticalAlign=bottom;endArrow=block;curved=0;rounded=0;" edge="1" parent="1">
          <mxGeometry width="80" relative="1" as="geometry">
            <mxPoint x="1209.5" y="1414.6799999999998" as="sourcePoint" />
            <mxPoint x="1040" y="1414.68" as="targetPoint" />
          </mxGeometry>
        </mxCell>
        <mxCell id="sfX6Y6t2FsTCowHZCcLG-11" value="user enters the data and&amp;nbsp;&lt;span data--h-bstatus=&quot;0OBSERVED&quot; style=&quot;background-color: light-dark(#ffffff, var(--ge-dark-color, #121212)); color: light-dark(rgb(0, 0, 0), rgb(255, 255, 255));&quot;&gt;clicks save&lt;/span&gt;" style="html=1;verticalAlign=bottom;endArrow=block;curved=0;rounded=0;" edge="1" parent="1">
          <mxGeometry width="80" relative="1" as="geometry">
            <mxPoint x="1040" y="1450" as="sourcePoint" />
            <mxPoint x="1205" y="1450" as="targetPoint" />
          </mxGeometry>
        </mxCell>
        <mxCell id="sfX6Y6t2FsTCowHZCcLG-12" value="GET /profile" style="html=1;verticalAlign=bottom;endArrow=block;curved=0;rounded=0;" edge="1" parent="1">
          <mxGeometry width="80" relative="1" as="geometry">
            <mxPoint x="1216" y="1225" as="sourcePoint" />
            <mxPoint x="1403" y="1226" as="targetPoint" />
          </mxGeometry>
        </mxCell>
        <mxCell id="p0F1IBTjS66ZD0jupDTs-1" value="POST /profile(profileProps)" style="html=1;verticalAlign=bottom;endArrow=block;curved=0;rounded=0;" edge="1" parent="1">
          <mxGeometry width="80" relative="1" as="geometry">
            <mxPoint x="1216" y="1470" as="sourcePoint" />
            <mxPoint x="1403" y="1471" as="targetPoint" />
          </mxGeometry>
        </mxCell>
        <mxCell id="p0F1IBTjS66ZD0jupDTs-2" value="201 created {status: success}" style="html=1;verticalAlign=bottom;endArrow=open;dashed=1;endSize=8;curved=0;rounded=0;" edge="1" parent="1">
          <mxGeometry relative="1" as="geometry">
            <mxPoint x="1413" y="1500" as="sourcePoint" />
            <mxPoint x="1215" y="1500" as="targetPoint" />
          </mxGeometry>
        </mxCell>
        <mxCell id="p0F1IBTjS66ZD0jupDTs-3" value="disable&amp;nbsp;&lt;div&gt;everything&lt;/div&gt;" style="html=1;align=left;spacingLeft=2;endArrow=block;rounded=0;edgeStyle=orthogonalEdgeStyle;curved=0;rounded=0;" edge="1" parent="1">
          <mxGeometry relative="1" as="geometry">
            <mxPoint x="1216" y="1370" as="sourcePoint" />
            <Array as="points">
              <mxPoint x="1246" y="1400" />
            </Array>
            <mxPoint x="1221" y="1400" as="targetPoint" />
          </mxGeometry>
        </mxCell>
        <mxCell id="p0F1IBTjS66ZD0jupDTs-4" value="redirect(/dashboard)" style="html=1;verticalAlign=bottom;endArrow=block;curved=0;rounded=0;" edge="1" parent="1">
          <mxGeometry width="80" relative="1" as="geometry">
            <mxPoint x="1209.5" y="1529.9999999999998" as="sourcePoint" />
            <mxPoint x="1040" y="1530" as="targetPoint" />
          </mxGeometry>
        </mxCell>
        <mxCell id="p0F1IBTjS66ZD0jupDTs-5" value="enters post details" style="html=1;verticalAlign=bottom;endArrow=block;curved=0;rounded=0;" edge="1" parent="1">
          <mxGeometry width="80" relative="1" as="geometry">
            <mxPoint x="1040" y="1680" as="sourcePoint" />
            <mxPoint x="1205" y="1680" as="targetPoint" />
          </mxGeometry>
        </mxCell>
        <mxCell id="p0F1IBTjS66ZD0jupDTs-6" value="POST /postsData(postsDataProps)" style="html=1;verticalAlign=bottom;endArrow=block;curved=0;rounded=0;" edge="1" parent="1">
          <mxGeometry width="80" relative="1" as="geometry">
            <mxPoint x="1216" y="1720" as="sourcePoint" />
            <mxPoint x="1403" y="1721" as="targetPoint" />
          </mxGeometry>
        </mxCell>
        <mxCell id="FCVqnQjpbM8ll9bisBGO-1" value="201 created PostData" style="html=1;verticalAlign=bottom;endArrow=open;dashed=1;endSize=8;curved=0;rounded=0;" edge="1" parent="1">
          <mxGeometry relative="1" as="geometry">
            <mxPoint x="1413" y="1790" as="sourcePoint" />
            <mxPoint x="1215" y="1790" as="targetPoint" />
          </mxGeometry>
        </mxCell>
        <mxCell id="FCVqnQjpbM8ll9bisBGO-2" value="activate profile" style="html=1;align=left;spacingLeft=2;endArrow=block;rounded=0;edgeStyle=orthogonalEdgeStyle;curved=0;rounded=0;" edge="1" parent="1">
          <mxGeometry relative="1" as="geometry">
            <mxPoint x="1416" y="1740" as="sourcePoint" />
            <Array as="points">
              <mxPoint x="1446" y="1770" />
            </Array>
            <mxPoint x="1421" y="1770" as="targetPoint" />
          </mxGeometry>
        </mxCell>
        <mxCell id="FCVqnQjpbM8ll9bisBGO-3" value="GET /postsData" style="html=1;verticalAlign=bottom;endArrow=block;curved=0;rounded=0;" edge="1" parent="1">
          <mxGeometry width="80" relative="1" as="geometry">
            <mxPoint x="1216" y="1830" as="sourcePoint" />
            <mxPoint x="1403" y="1831" as="targetPoint" />
          </mxGeometry>
        </mxCell>
        <mxCell id="FCVqnQjpbM8ll9bisBGO-4" value="200 ok [PostData]" style="html=1;verticalAlign=bottom;endArrow=open;dashed=1;endSize=8;curved=0;rounded=0;" edge="1" parent="1">
          <mxGeometry relative="1" as="geometry">
            <mxPoint x="1413" y="1870" as="sourcePoint" />
            <mxPoint x="1215" y="1870" as="targetPoint" />
          </mxGeometry>
        </mxCell>
        <mxCell id="FCVqnQjpbM8ll9bisBGO-5" value="GET /posts" style="html=1;verticalAlign=bottom;endArrow=block;curved=0;rounded=0;" edge="1" parent="1">
          <mxGeometry width="80" relative="1" as="geometry">
            <mxPoint x="1216" y="1906" as="sourcePoint" />
            <mxPoint x="1403" y="1907" as="targetPoint" />
          </mxGeometry>
        </mxCell>
        <mxCell id="FCVqnQjpbM8ll9bisBGO-6" value="200 ok [Post]" style="html=1;verticalAlign=bottom;endArrow=open;dashed=1;endSize=8;curved=0;rounded=0;" edge="1" parent="1">
          <mxGeometry relative="1" as="geometry">
            <mxPoint x="1413" y="1940" as="sourcePoint" />
            <mxPoint x="1215" y="1940" as="targetPoint" />
          </mxGeometry>
        </mxCell>
        <mxCell id="FCVqnQjpbM8ll9bisBGO-8" value="user wants to see his posts" style="html=1;verticalAlign=bottom;endArrow=block;curved=0;rounded=0;" edge="1" parent="1">
          <mxGeometry width="80" relative="1" as="geometry">
            <mxPoint x="1040" y="1810" as="sourcePoint" />
            <mxPoint x="1205" y="1810" as="targetPoint" />
          </mxGeometry>
        </mxCell>
        <mxCell id="FCVqnQjpbM8ll9bisBGO-9" value="user wants to see his published posts" style="html=1;verticalAlign=bottom;endArrow=block;curved=0;rounded=0;" edge="1" parent="1">
          <mxGeometry width="80" relative="1" as="geometry">
            <mxPoint x="1040" y="1890" as="sourcePoint" />
            <mxPoint x="1205" y="1890" as="targetPoint" />
          </mxGeometry>
        </mxCell>
      </root>
    </mxGraphModel>
  </diagram>
  <diagram id="Oz1WUjvAjqPyoGqg9K6c" name="scheduling">
    <mxGraphModel dx="1167" dy="580" grid="1" gridSize="10" guides="1" tooltips="1" connect="1" arrows="1" fold="1" page="1" pageScale="1" pageWidth="850" pageHeight="1100" math="0" shadow="0">
      <root>
        <mxCell id="0" />
        <mxCell id="1" parent="0" />
        <mxCell id="qnCO7IN75JWVIPcF3vgf-1" value="" style="group" vertex="1" connectable="0" parent="1">
          <mxGeometry x="50" y="60" width="350" height="180" as="geometry" />
        </mxCell>
        <mxCell id="qnCO7IN75JWVIPcF3vgf-2" value="" style="whiteSpace=wrap;html=1;fontSize=11;" vertex="1" parent="qnCO7IN75JWVIPcF3vgf-1">
          <mxGeometry width="350" height="180" as="geometry" />
        </mxCell>
        <mxCell id="qnCO7IN75JWVIPcF3vgf-5" value="&lt;div data--h-bstatus=&quot;0OBSERVED&quot;&gt;&lt;span data--h-bstatus=&quot;0OBSERVED&quot; style=&quot;font-size: 16px;&quot;&gt;&lt;b data--h-bstatus=&quot;0OBSERVED&quot;&gt;scheduling&lt;/b&gt;&lt;/span&gt;&lt;/div&gt;&lt;div data--h-bstatus=&quot;0OBSERVED&quot;&gt;&lt;span data--h-bstatus=&quot;0OBSERVED&quot; style=&quot;font-size: 16px;&quot;&gt;&lt;b data--h-bstatus=&quot;0OBSERVED&quot;&gt;&lt;br data--h-bstatus=&quot;0OBSERVED&quot;&gt;&lt;/b&gt;&lt;/span&gt;&lt;/div&gt;&lt;div data--h-bstatus=&quot;0OBSERVED&quot;&gt;actor: system&lt;/div&gt;&lt;div data--h-bstatus=&quot;0OBSERVED&quot;&gt;&lt;br data--h-bstatus=&quot;0OBSERVED&quot;&gt;&lt;/div&gt;&lt;div data--h-bstatus=&quot;0OBSERVED&quot;&gt;scenario:&lt;/div&gt;&lt;div data--h-bstatus=&quot;0OBSERVED&quot;&gt;system should be able to store posts data provided by&lt;/div&gt;&lt;div data--h-bstatus=&quot;0OBSERVED&quot;&gt;user, schedule them to be published on time, posting&lt;/div&gt;&lt;div data--h-bstatus=&quot;0OBSERVED&quot;&gt;to groups or publishing for a page&lt;/div&gt;" style="text;html=1;align=left;verticalAlign=middle;resizable=0;points=[];autosize=1;strokeColor=none;fillColor=none;" vertex="1" parent="qnCO7IN75JWVIPcF3vgf-1">
          <mxGeometry x="26" y="20" width="310" height="140" as="geometry" />
        </mxCell>
        <mxCell id="LlGMNosgxMFHkSnMfQhp-1" value="" style="shape=umlLifeline;perimeter=lifelinePerimeter;whiteSpace=wrap;html=1;container=1;dropTarget=0;collapsible=0;recursiveResize=0;outlineConnect=0;portConstraint=eastwest;newEdgeStyle={&quot;curved&quot;:0,&quot;rounded&quot;:0};participant=umlActor;size=60;" vertex="1" parent="1">
          <mxGeometry x="130.01" y="380" width="29.99" height="860" as="geometry" />
        </mxCell>
        <mxCell id="LlGMNosgxMFHkSnMfQhp-2" value="" style="html=1;points=[[0,0,0,0,5],[0,1,0,0,-5],[1,0,0,0,5],[1,1,0,0,-5]];perimeter=orthogonalPerimeter;outlineConnect=0;targetShapes=umlLifeline;portConstraint=eastwest;newEdgeStyle={&quot;curved&quot;:0,&quot;rounded&quot;:0};" vertex="1" parent="LlGMNosgxMFHkSnMfQhp-1">
          <mxGeometry x="10" y="72" width="10" height="788" as="geometry" />
        </mxCell>
        <mxCell id="LlGMNosgxMFHkSnMfQhp-3" value="user" style="text;html=1;align=center;verticalAlign=middle;resizable=0;points=[];autosize=1;strokeColor=none;fillColor=none;" vertex="1" parent="1">
          <mxGeometry x="120" y="350" width="50" height="30" as="geometry" />
        </mxCell>
        <mxCell id="LlGMNosgxMFHkSnMfQhp-4" value="dashboard ui" style="shape=umlLifeline;perimeter=lifelinePerimeter;whiteSpace=wrap;html=1;container=1;dropTarget=0;collapsible=0;recursiveResize=0;outlineConnect=0;portConstraint=eastwest;newEdgeStyle={&quot;curved&quot;:0,&quot;rounded&quot;:0};size=42;" vertex="1" parent="1">
          <mxGeometry x="270" y="380" width="100" height="850" as="geometry" />
        </mxCell>
        <mxCell id="LlGMNosgxMFHkSnMfQhp-5" value="" style="html=1;points=[[0,0,0,0,5],[0,1,0,0,-5],[1,0,0,0,5],[1,1,0,0,-5]];perimeter=orthogonalPerimeter;outlineConnect=0;targetShapes=umlLifeline;portConstraint=eastwest;newEdgeStyle={&quot;curved&quot;:0,&quot;rounded&quot;:0};" vertex="1" parent="LlGMNosgxMFHkSnMfQhp-4">
          <mxGeometry x="45" y="80" width="10" height="770" as="geometry" />
        </mxCell>
        <mxCell id="LlGMNosgxMFHkSnMfQhp-6" value="check if user&amp;nbsp;&lt;div data--h-bstatus=&quot;0OBSERVED&quot;&gt;configured his profile&lt;/div&gt;" style="html=1;align=left;spacingLeft=2;endArrow=block;rounded=0;edgeStyle=orthogonalEdgeStyle;curved=0;rounded=0;" edge="1" parent="1">
          <mxGeometry relative="1" as="geometry">
            <mxPoint x="326" y="570" as="sourcePoint" />
            <Array as="points">
              <mxPoint x="356" y="600" />
            </Array>
            <mxPoint x="331" y="600" as="targetPoint" />
          </mxGeometry>
        </mxCell>
        <mxCell id="LlGMNosgxMFHkSnMfQhp-8" value="API &amp;amp; DB" style="shape=umlLifeline;perimeter=lifelinePerimeter;whiteSpace=wrap;html=1;container=1;dropTarget=0;collapsible=0;recursiveResize=0;outlineConnect=0;portConstraint=eastwest;newEdgeStyle={&quot;curved&quot;:0,&quot;rounded&quot;:0};size=42;" vertex="1" parent="1">
          <mxGeometry x="470" y="380" width="100" height="850" as="geometry" />
        </mxCell>
        <mxCell id="LlGMNosgxMFHkSnMfQhp-9" value="" style="html=1;points=[[0,0,0,0,5],[0,1,0,0,-5],[1,0,0,0,5],[1,1,0,0,-5]];perimeter=orthogonalPerimeter;outlineConnect=0;targetShapes=umlLifeline;portConstraint=eastwest;newEdgeStyle={&quot;curved&quot;:0,&quot;rounded&quot;:0};" vertex="1" parent="LlGMNosgxMFHkSnMfQhp-8">
          <mxGeometry x="45" y="80" width="10" height="770" as="geometry" />
        </mxCell>
        <mxCell id="LlGMNosgxMFHkSnMfQhp-10" value="configure his profile" style="html=1;verticalAlign=bottom;endArrow=block;curved=0;rounded=0;" edge="1" parent="1">
          <mxGeometry width="80" relative="1" as="geometry">
            <mxPoint x="150" y="480" as="sourcePoint" />
            <mxPoint x="315" y="480" as="targetPoint" />
          </mxGeometry>
        </mxCell>
        <mxCell id="LlGMNosgxMFHkSnMfQhp-11" value="PUT /profile | POST /profile" style="html=1;verticalAlign=bottom;endArrow=block;curved=0;rounded=0;" edge="1" parent="1">
          <mxGeometry width="80" relative="1" as="geometry">
            <mxPoint x="326" y="495" as="sourcePoint" />
            <mxPoint x="513" y="496" as="targetPoint" />
          </mxGeometry>
        </mxCell>
        <mxCell id="voUXuJ3lyusAGc8DedLL-1" value="scheduling instance" style="shape=umlLifeline;perimeter=lifelinePerimeter;whiteSpace=wrap;html=1;container=1;dropTarget=0;collapsible=0;recursiveResize=0;outlineConnect=0;portConstraint=eastwest;newEdgeStyle={&quot;curved&quot;:0,&quot;rounded&quot;:0};size=42;" vertex="1" parent="1">
          <mxGeometry x="670" y="380" width="100" height="850" as="geometry" />
        </mxCell>
        <mxCell id="voUXuJ3lyusAGc8DedLL-2" value="" style="html=1;points=[[0,0,0,0,5],[0,1,0,0,-5],[1,0,0,0,5],[1,1,0,0,-5]];perimeter=orthogonalPerimeter;outlineConnect=0;targetShapes=umlLifeline;portConstraint=eastwest;newEdgeStyle={&quot;curved&quot;:0,&quot;rounded&quot;:0};" vertex="1" parent="voUXuJ3lyusAGc8DedLL-1">
          <mxGeometry x="45" y="80" width="10" height="770" as="geometry" />
        </mxCell>
        <mxCell id="voUXuJ3lyusAGc8DedLL-3" value="PUT /profile | POST /profile" style="html=1;verticalAlign=bottom;endArrow=block;curved=0;rounded=0;" edge="1" parent="1">
          <mxGeometry width="80" relative="1" as="geometry">
            <mxPoint x="525" y="510" as="sourcePoint" />
            <mxPoint x="715" y="511" as="targetPoint" />
          </mxGeometry>
        </mxCell>
      </root>
    </mxGraphModel>
  </diagram>
</mxfile>
